# xmcd CD database file
#
# Track frame offsets:
#	150
#	15735
#	24491
#	53470
#	70976
#	84252
#	102978
#	128062
#	148923
#	165820
#	192509
#	205826
#	220461
#	232788
#
# Disc length: 3240 seconds
#
# Revision: 1
# Processed by: cddbd v1.5.1PL2 Copyright (c) Steve Scherf et al.
# Submitted via: CDex 1.51
#
DISCID=b70ca60e
DTITLE=Ede's Chicken Shack - Too Close to the Blues
DYEAR=2005
DGENRE=Blues
TTITLE0=I wish
TTITLE1=Organ grinder's swing
TTITLE2=One foot in the blues
TTITLE3=Won't pass me by
TTITLE4=The funky chicken
TTITLE5=Too close to the blues
TTITLE6=Soul shadows
TTITLE7=Back at the chicken shack
TTITLE8=I got my moyo working
TTITLE9=Round midnight
TTITLE10=Cookin' in style
TTITLE11=I've got you under my skin
TTITLE12=It don't mean a thing
TTITLE13=What now my love
EXTD=YEAR: 2005
EXTT0=
EXTT1=
EXTT2=
EXTT3=
EXTT4=
EXTT5=
EXTT6=
EXTT7=
EXTT8=
EXTT9=
EXTT10=
EXTT11=
EXTT12=
EXTT13=
PLAYORDER=
